PathFileType	4	(X/Y/Z)	 s05c0101.trc
DataRate	CameraRate	NumFrames	NumMarkers	Units	OrigDataRate	OrigDataStartFrame	OrigNumFrames
200	200	5	50	mm	200	251	2000
Frame#	Time	racr			lacr			c7			jug			rlel			rdr			llel			ldr			s2			lic			ric			lasi			rasi			rpsi			lpsi			rgt			lgt			rth1			rth2			rth3			rth4			rlfc			rmfc			rsh1			rsh2			rsh3			rsh4			rlmal			rmmal			rcal			rtoe			rmt5			lth1			lth2			lth4			lth3			llfc			lmfc			lsh1			lsh2			lsh3			lsh4			llmal			lmmal			lcal			ltoe			lmt5			SBIKE			LBIKE			RBIKE			
		X1	Y1	Z1	X2	Y2	Z2	X3	Y3	Z3	X4	Y4	Z4	X5	Y5	Z5	X6	Y6	Z6	X7	Y7	Z7	X8	Y8	Z8	X9	Y9	Z9	X10	Y10	Z10	X11	Y11	Z11	X12	Y12	Z12	X13	Y13	Z13	X14	Y14	Z14	X15	Y15	Z15	X16	Y16	Z16	X17	Y17	Z17	X18	Y18	Z18	X19	Y19	Z19	X20	Y20	Z20	X21	Y21	Z21	X22	Y22	Z22	X23	Y23	Z23	X24	Y24	Z24	X25	Y25	Z25	X26	Y26	Z26	X27	Y27	Z27	X28	Y28	Z28	X29	Y29	Z29	X30	Y30	Z30	X31	Y31	Z31	X32	Y32	Z32	X33	Y33	Z33	X34	Y34	Z34	X35	Y35	Z35	X36	Y36	Z36	X37	Y37	Z37	X38	Y38	Z38	X39	Y39	Z39	X40	Y40	Z40	X41	Y41	Z41	X42	Y42	Z42	X43	Y43	Z43	X44	Y44	Z44	X45	Y45	Z45	X46	Y46	Z46	X47	Y47	Z47	X48	Y48	Z48	X49	Y49	Z49	X50	Y50	Z50	
251	1.2550	438.549119	1376.638144	-123.743562	445.322549	1395.385406	-406.703590	412.757096	1467.716586	-269.213517	401.924021	1308.984420	-269.909123	533.177964	1131.147134	-36.531293	698.254261	922.266712	-75.913348	528.695152	1136.437093	-497.994842	762.353268	1033.802510	-451.174498	-103.315790	1165.006484	-261.454576	51.998780	1179.053875	-402.048927	51.000223	1189.049128	-122.618779	95.403709	1120.973100	-371.831174	86.367243	1126.118843	-149.233350	-67.262223	1210.420765	-221.165549	-65.306557	1213.702210	-306.472756	0.806786	1061.453099	-89.403560	-23.364018	1074.796798	-432.231535	100.008828	999.964975	-73.502563	187.249190	981.315681	-73.067395	251.631499	921.397985	-78.042027	203.063675	1013.143464	-84.590418	382.768080	841.659630	-107.326520	370.990466	837.086062	-217.559526	319.383510	748.361818	-86.379329	315.796654	659.520774	-95.003215	271.738697	586.239864	-100.143907	346.644302	653.181140	-117.557409	242.502002	453.093854	-111.597218	255.975626	478.044524	-190.980417	172.696877	420.974520	-157.483571	467.179537	402.190403	-144.921898	364.990988	376.343257	-82.759621	61.982714	962.121986	-454.415591	136.921749	919.121151	-457.003790	162.830065	941.379449	-440.569342	179.892816	839.908614	-463.298824	258.296457	710.242579	-433.272751	242.825297	701.227325	-324.096759	162.289753	627.809326	-456.528963	120.466717	551.785597	-444.054223	44.247190	505.979760	-443.307934	143.375247	533.125895	-419.217856	-35.611754	411.356938	-434.232630	-9.543137	423.760947	-354.179694	-109.413724	397.907244	-391.466559	152.701840	265.236286	-394.519087	44.333811	284.292998	-459.000580	-259.080381	899.262741	-280.849114	-43.574318	84.996485	-475.068208	-51.717700	80.160487	-77.590649	
252	1.2600	438.521221	1376.627845	-123.740089	445.301379	1395.360640	-406.684971	412.751487	1467.699300	-269.176965	401.926371	1308.982715	-269.913039	533.169050	1131.141511	-36.538329	698.250309	922.275186	-75.902720	528.682928	1136.410433	-498.020764	762.209494	1033.751968	-451.146804	-103.259842	1164.934238	-261.436149	51.995079	1179.030601	-402.043133	50.983467	1189.024689	-122.636223	95.382654	1120.965123	-371.852430	86.328844	1126.109880	-149.225489	-67.279965	1210.407833	-221.151625	-65.318814	1213.692105	-306.480905	0.796179	1061.444556	-89.406798	-23.369443	1074.782541	-432.232967	100.001200	999.962316	-73.514689	187.250125	981.314341	-73.074449	251.614918	921.404960	-78.045535	203.053881	1013.143812	-84.603176	382.755403	841.680700	-107.334036	370.964926	837.086649	-217.573316	319.359630	748.375766	-86.378926	315.765620	659.515759	-95.024604	271.714745	586.245598	-100.144999	346.662275	653.192718	-117.576525	242.498425	453.111287	-111.609493	256.011783	478.025802	-190.977919	172.690360	420.972241	-157.473407	467.174174	402.166044	-144.922768	364.991360	376.337904	-82.758362	61.982488	962.100663	-454.416083	136.900934	919.111061	-457.017898	162.819820	941.375658	-440.562544	179.891164	839.898772	-463.297068	258.296432	710.242569	-433.272727	242.838603	701.233422	-324.100276	162.295991	627.821832	-456.506293	120.497165	551.812049	-444.050845	44.247321	505.987391	-443.307993	143.567607	533.228167	-419.473731	-35.607174	411.370831	-434.218250	-9.561475	423.777906	-354.168889	-109.416192	397.909525	-391.467555	152.710978	265.232197	-394.517774	44.328402	284.299483	-459.001957	-259.018783	899.280987	-280.984226	-43.578507	84.987148	-475.071794	-51.726616	80.178036	-77.571151	
253	1.2650	438.535317	1376.620212	-123.746885	445.300765	1395.348013	-406.684214	412.750904	1467.679817	-269.181379	401.921358	1308.970234	-269.905263	533.130719	1131.132795	-36.522767	698.253804	922.269185	-75.908770	528.658130	1136.404305	-498.062890	762.373596	1033.775078	-451.191041	-103.278981	1164.927106	-261.448287	51.984119	1179.033742	-402.047723	50.981303	1189.015319	-122.636205	95.385372	1120.949654	-371.853351	86.338163	1126.102785	-149.214986	-67.280572	1210.404641	-221.151529	-65.333736	1213.674023	-306.483448	0.784278	1061.427045	-89.415074	-23.374962	1074.766632	-432.227834	100.002850	999.957185	-73.528324	187.238724	981.312112	-73.072914	251.614001	921.413935	-78.044338	203.046668	1013.148801	-84.584808	382.760243	841.676165	-107.350588	370.950034	837.084427	-217.577179	319.368984	748.376711	-86.381145	315.767024	659.527755	-95.038934	271.705846	586.248965	-100.143211	346.623621	653.187260	-117.576095	242.492417	453.117734	-111.577628	256.012258	478.025290	-190.978244	172.705758	420.967555	-157.498546	467.175649	402.168293	-144.925612	364.983246	376.342146	-82.762429	61.983497	962.082874	-454.389372	136.913130	919.092694	-457.009847	162.827232	941.376333	-440.560950	179.900315	839.901985	-463.283888	258.314473	710.237211	-433.270237	242.834101	701.245447	-324.095125	162.307830	627.822371	-456.504314	120.491819	551.795065	-444.035257	44.247911	505.989272	-443.302161	143.386184	533.141472	-419.205688	-35.606081	411.379422	-434.236215	-9.549915	423.791698	-354.164630	-109.408084	397.919478	-391.475356	152.696992	265.250786	-394.515680	44.323348	284.305683	-458.994061	-259.037391	899.262431	-280.891462	-43.597346	84.988902	-475.051330	-51.731713	80.168152	-77.573221	
254	1.2700	438.520304	1376.620626	-123.732895	445.285652	1395.316994	-406.680378	412.763320	1467.670426	-269.204936	401.942165	1308.959930	-269.931912	533.117227	1131.130882	-36.498082	698.248190	922.266140	-75.898879	528.630455	1136.389291	-498.102797	762.201607	1033.770581	-451.144942	-103.302692	1164.926305	-261.457334	51.952058	1179.042521	-402.050762	50.982198	1189.000397	-122.654779	95.366996	1120.946224	-371.862608	86.341241	1126.081991	-149.254088	-67.289197	1210.392087	-221.170862	-65.346615	1213.677677	-306.487374	0.774895	1061.410115	-89.427068	-23.384218	1074.751239	-432.239933	100.002304	999.944839	-73.545042	187.217681	981.314950	-73.070196	251.571534	921.378140	-78.071157	203.041396	1013.153048	-84.592715	382.740813	841.688435	-107.365202	370.941290	837.077778	-217.594346	319.355460	748.375190	-86.399578	315.779518	659.534398	-95.030686	271.743640	586.241301	-100.163658	346.654123	653.185883	-117.589057	242.506360	453.115833	-111.596335	256.011565	478.021423	-190.979272	172.717046	420.983275	-157.479009	467.190526	402.140151	-144.927899	365.001426	376.335202	-82.766016	61.975499	962.085249	-454.417005	136.900499	919.094905	-457.014481	162.811030	941.369947	-440.562713	179.888031	839.899191	-463.290904	258.314900	710.243385	-433.246131	242.833122	701.258672	-324.056342	162.323029	627.840880	-456.506151	120.488918	551.831721	-444.037393	44.264887	506.010990	-443.289412	143.565414	533.234144	-419.440434	-35.591474	411.380668	-434.229500	-9.529078	423.784656	-354.167836	-109.406866	397.932886	-391.457961	152.700550	265.254453	-394.497504	44.325905	284.317899	-458.996016	-259.007943	899.261716	-280.917342	-43.581077	84.986344	-475.068123	-51.715798	80.177153	-77.580456	
255	1.2750	438.516471	1376.605522	-123.752674	445.279678	1395.313708	-406.665970	412.762136	1467.659458	-269.195201	401.924696	1308.945003	-269.916933	533.106667	1131.122691	-36.498496	698.238835	922.266937	-75.887816	528.605612	1136.370161	-498.147309	762.296564	1033.775966	-451.178635	-103.313005	1164.915154	-261.463114	51.966479	1179.032087	-402.071870	50.963594	1188.985228	-122.635362	95.354302	1120.940871	-371.860410	86.315316	1126.074371	-149.255227	-67.310710	1210.397606	-221.153576	-65.354912	1213.669692	-306.488581	0.759932	1061.398842	-89.407950	-23.398461	1074.748362	-432.250089	99.973053	999.935459	-73.536426	187.203981	981.302260	-73.084752	251.571896	921.394291	-78.090129	203.028196	1013.149180	-84.592373	382.740639	841.707800	-107.366197	370.940775	837.086578	-217.590280	319.344763	748.380327	-86.412007	315.783163	659.549131	-95.055050	271.717914	586.253249	-100.166233	346.634112	653.238856	-117.581321	242.512708	453.096260	-111.596275	256.013201	478.027804	-190.985956	172.706617	420.975678	-157.480406	467.187563	402.133107	-144.937871	365.004102	376.327451	-82.767670	61.958107	962.073634	-454.399164	136.903488	919.088847	-456.999699	162.812354	941.369106	-440.565487	179.886618	839.895733	-463.289830	258.322460	710.252174	-433.243687	242.839084	701.264647	-324.070038	162.333344	627.860503	-456.486849	120.495872	551.842566	-444.019820	44.266182	506.038167	-443.293958	143.404064	533.174883	-419.213926	-35.600418	411.391884	-434.241235	-9.536950	423.810529	-354.167910	-109.400913	397.951116	-391.474981	152.702523	265.259138	-394.494881	44.324381	284.323494	-458.992747	-259.076489	899.289229	-280.901599	-43.584153	84.999439	-475.073085	-51.724266	80.166473	-77.592350	
